<svg width="512" height="512" xmlns="http://www.w3.org/2000/svg">

 <g>
  <title>background</title>
  <rect fill="none" id="canvas_background" height="201" width="291" y="-1" x="-1"/>
 </g>
 <g>
  <title fill="#3b7dd6">Layer 1</title>
  <path fill="#3b7dd6" id="svg_6" d="m323.4,241.2c-16,25 -42.6,51.4 -75,46.5c-32,-4.8 -54.7,-34.8 -68.3,-61.7c-2,-3.9 -6.7,-4.3 -10.3,-2.7c-2.8,1.3 -6.1,-1.3 -8.1,-3.2c-4.1,-3.8 -6.4,-9.2 -8,-14.4c-1.9,-6.3 -4.2,-23.2 4.7,-25.9c4.3,-1.3 5.8,-5.1 5.2,-9.2c0,0 0,0 0,-0.1c-0.6,-4.1 -5.7,-6.2 -9.2,-5.2c-4.3,1.2 -5.8,5.2 -5.2,9.2c0,0 0,0 0,0.1c1.7,-3.1 3.5,-6.2 5.2,-9.2c-18.8,5.8 -19.4,30.3 -14.7,45.9c4.8,15.7 19.8,33.4 37.7,25c-3.4,-0.9 -6.8,-1.8 -10.3,-2.7c15.7,31.1 42.4,63.4 78.8,68.8c38.9,5.8 70.9,-23.1 90.4,-53.7c5.3,-8.1 -7.7,-15.6 -12.9,-7.5l0,0z"/>
  <path fill="#3b7dd6" id="svg_9" d="m222.4,371.5c21.5,8.2 45.3,7.7 67.1,0.9c9.2,-2.8 5.3,-17.3 -4,-14.5c-19.5,6 -39.9,6.4 -59.1,-0.9c-9,-3.4 -12.9,11.1 -4,14.5l0,0z"/>
  <path fill="#3b7dd6" id="svg_12" d="m417.3,498.9c0,-24.3 0,-48.7 0,-73c0,-10 0,-20 0,-30c0,-21.4 -11,-40.9 -28.9,-52.4c-11,-7.1 -24.1,-8.7 -36.6,-11.2c-10.8,-2.2 -21.5,-4.3 -32.3,-6.5c1.5,1.1 3,2.3 4.5,3.4c-3.2,-4.7 -6.1,-9.9 -9.9,-14.2c-5.5,-6.2 -17.4,-7 -20.2,2.1c-2.4,7.9 -4.7,15.9 -7.1,23.8c-8.9,29.9 -17.8,59.8 -26.7,89.7c-3.8,12.7 -7.6,25.4 -11.4,38.2c4.8,0 9.6,0 14.5,0c-14,-47.3 -28,-94.5 -42,-141.8c-1.1,-3.6 -2.1,-7.2 -3.2,-10.9c-1.7,-5.9 -8.2,-6.3 -13.3,-5.5c-3.7,0.6 -6.4,3.9 -8.5,6.7c-2.8,3.9 -5.5,7.9 -8.3,11.8c1.5,-1.1 3,-2.3 4.5,-3.4c-12,2.4 -23.9,4.8 -35.9,7.2c-4.4,0.9 -8.9,1.8 -13.3,2.7c-11.2,2.2 -21.4,7.9 -29.7,15.6c-13.1,12.1 -18.9,29.4 -18.9,46.9c0,12.1 0,24.1 0,36.2c0,21.5 0,43 0,64.5c0,9.7 15,9.7 15,0c0,-24.3 0,-48.7 0,-73c0,-10 0,-20 0,-30c0,-19.6 12.2,-37.4 30.8,-44c5.3,-1.9 11.2,-2.7 16.8,-3.8c8.3,-1.7 16.7,-3.3 25,-5c4.7,-0.9 9.5,-1.9 14.2,-2.8c3.7,-0.7 6.4,-6.2 8.4,-9c1.2,-1.7 2.4,-3.5 3.6,-5.2c0.3,-0.5 0.7,-1 1,-1.4c1,-1.4 -1.2,0.7 -0.7,0.8c-1.7,-1.7 -3.5,-3.5 -5.2,-5.2c14,47.3 28,94.5 42,141.8c1.1,3.6 2.1,7.2 3.2,10.9c2.1,7.2 12.3,7.1 14.5,0c14.1,-47.3 28.2,-94.5 42.2,-141.8c1.1,-3.6 2.2,-7.2 3.2,-10.9c-1.7,1.7 -3.5,3.5 -5.2,5.2c-0.2,0.1 -1.8,-2.3 -0.1,0.1c0.9,1.4 1.9,2.8 2.8,4.1c1.6,2.4 3.3,4.8 4.9,7.1c3,4.4 9.7,4.5 14.5,5.4c12.9,2.6 25.9,5.2 38.8,7.8c20.2,4 35.9,20.5 37.8,41.2c0.8,8.8 0.2,17.9 0.2,26.7c0,27 0,53.9 0,80.9c0,9.9 15,9.9 15,0.2l0,0z"/>
  <path fill="#3b7dd6" id="svg_15" d="m204.6,410.3c-0.3,10.1 -8,17.8 -18.1,18.1c-10.1,0.3 -17.8,-8.4 -18.1,-18.1c-0.3,-10.1 8.4,-17.8 18.1,-18.1c10.2,-0.2 17.9,8.5 18.1,18.1c0.3,9.7 15.3,9.7 15,0c-0.5,-18.3 -14.7,-32.6 -33.1,-33.1c-18.3,-0.5 -32.6,15.5 -33.1,33.1c-0.5,18.3 15.5,32.6 33.1,33.1c18.3,0.5 32.6,-15.5 33.1,-33.1c0.3,-9.7 -14.7,-9.6 -15,0z"/>
  <path fill="#3b7dd6" id="svg_18" d="m321.6,457.1c-7.2,-0.3 -7.5,-6.6 -7.5,-12.1c0,-7.5 0,-15 0,-22.5c0,-4.8 0,-9.6 0,-14.4c0,-10.2 6.5,-19.5 16,-23.1c10.2,-3.8 20.8,-0.3 27.8,7.6c4.7,5.3 5.5,12.1 5.5,18.8c0,12.7 0,25.4 0,38c0,4.3 -3.3,7.4 -7.5,7.6c-9.6,0.4 -9.7,15.4 0,15c12.2,-0.6 22.5,-9.9 22.5,-22.5c0,-5.1 0,-10.2 0,-15.3c0,-14.6 2,-30.7 -4.4,-44.2c-10.7,-22.6 -41.6,-27.9 -60.3,-12.5c-9.2,7.6 -14.3,18.7 -14.5,30.6c-0.1,4.8 0,9.6 0,14.4c0,8.6 0,17.1 0,25.7c0,13.2 9.2,23.3 22.5,23.9c9.6,0.4 9.6,-14.6 -0.1,-15l0,0z"/>
  <path fill="#3b7dd6" id="svg_21" d="m219.6,121.7c3.3,0.9 6.6,2.2 9.8,3.4c0.8,0.3 1.5,0.6 2.3,0.9c1.7,0.7 -1.2,-0.5 1.1,0.5c2,0.9 4,1.8 6,2.8c4.5,2.2 9,4.6 13.3,7.2c23,13.6 42.4,32.9 55.2,57.2c16.2,30.8 18.5,66.9 13.3,100.8c-1.2,7.5 6.5,12.4 12.5,7.3c13.4,-11.3 24.1,-27.2 32,-42.7c18.4,-36 20.7,-77.1 8.9,-115.5c-13.7,-44.4 -42.5,-86.7 -87.4,-103.2c-31.2,-11.5 -68.8,-8.4 -97.2,9.1c-13.9,8.5 -26.8,22 -29.5,38.7c1.1,-1.5 2.3,-3 3.4,-4.5c-7.1,4.8 -11.4,13 -14.5,20.7c-8.7,22 -5.1,48.1 0.3,70.4c0.9,3.9 5.4,6.4 9.2,5.2c30,-9.1 55.1,-34.9 69.7,-61.6c4.7,-8.5 -8.3,-16.1 -13,-7.6c-9.6,17.5 -22.7,32.6 -39.3,43.7c-5.1,3.4 -10.4,6.4 -16,8.9c-0.4,0.2 -0.7,0.3 -1.1,0.5c-1.8,0.8 1.5,-0.6 -0.1,0.1c-0.8,0.3 -1.5,0.6 -2.3,0.9c-0.6,0.2 -1.3,0.5 -1.9,0.7c3.1,1.7 6.2,3.5 9.2,5.2c-4.7,-19.7 -7.7,-41.4 -0.8,-61c0.8,-2.1 1.3,-3.4 2.9,-6.2c0.5,-1 1.1,-1.9 1.7,-2.8c0.3,-0.4 0.6,-0.8 0.8,-1.2c0.8,-1.1 -1.1,1.4 0.2,-0.2c0.8,-1 1.7,-1.9 2.6,-2.8c1.8,-1.7 -1.1,0.7 -0.1,0c3.5,-2.4 3.5,-6 4.7,-9.7c0.2,-0.6 0.4,-1.3 0.7,-1.9c0.8,-2.1 -0.6,1.3 0.3,-0.7c0.7,-1.5 1.4,-2.9 2.3,-4.3c2.9,-4.9 6.7,-8.8 11.7,-13c10.2,-8.4 24.6,-13.9 38.4,-16.6c35.7,-6.9 71.8,7.1 96.1,33.8c17,18.8 28.9,43.5 35.9,67.7c5.7,19.9 7.4,41 4,61.5c-3.6,21 -12.2,40.5 -24.5,57.8c-3.4,4.7 -7.3,9.6 -12.2,14.7c-1.8,1.9 -3.6,3.7 -5.6,5.4c4.2,2.4 8.4,4.9 12.5,7.3c6.2,-40.2 2.9,-81.6 -17.6,-117.4c-13.9,-24.3 -34.9,-44 -58.9,-58.2c-10.9,-6.4 -22.8,-12.3 -35.1,-15.6c-9.2,-2.7 -13.2,11.7 -3.9,14.3z"/>
  <path fill="#3b7dd6" id="svg_24" d="m346.3,375.9c0,-12.9 0,-25.7 0,-38.6c0,-3.5 -2.3,-6.2 -5.5,-7.2c1.1,0.6 2.2,1.3 3.3,1.9c-6.8,-6.8 -17.5,3.8 -10.6,10.6c1,1 2,1.5 3.3,1.9c-1.8,-2.4 -3.7,-4.8 -5.5,-7.2c0,12.9 0,25.7 0,38.6c0,9.7 15,9.7 15,0l0,0z"/>
  <path fill="#3b7dd6" id="svg_27" d="m217.1,317.9c0,-13.6 0,-27.2 0,-40.9c0,-9.7 -15,-9.7 -15,0c0,13.6 0,27.2 0,40.9c0,9.7 15,9.7 15,0l0,0z"/>
  <path fill="#3b7dd6" id="svg_30" d="m309.9,318c0,-13.6 0,-27.3 0,-40.9c0,-9.7 -15,-9.7 -15,0c0,13.6 0,27.3 0,40.9c0,9.6 15,9.6 15,0l0,0z"/>
  <path fill="#3b7dd6" id="svg_33" d="m194.1,384.8c0,-16.7 0,-33.4 0,-50.1c0,-9.7 -15,-9.7 -15,0c0,16.7 0,33.4 0,50.1c0,9.6 15,9.6 15,0l0,0z"/>
  <path fill="#3b7dd6" id="svg_36" d="m195.2,319.2c0,0 0,0 0,0c-2.9,2.9 -2.9,7.7 0,10.6c2.9,2.9 7.7,2.9 10.6,0c0,0 0,0 0,0c2.9,-2.9 2.9,-7.7 0,-10.6c-2.9,-2.9 -7.7,-2.9 -10.6,0l0,0z"/>
  <path fill="#3b7dd6" id="svg_39" d="m409.8,491.4c-41,0 -82,0 -123.1,0c-56.5,0 -113,0 -169.5,0c-5,0 -10.1,0 -15.1,0c-9.7,0 -9.7,15 0,15c41,0 82,0 123.1,0c56.5,0 113,0 169.5,0c5,0 10.1,0 15.1,0c9.7,0 9.7,-15 0,-15l0,0z"/>
 </g>
</svg>