<?xml version="1.0" standalone="no"?>
<!DOCTYPE svg PUBLIC "-//W3C//DTD SVG 20010904//EN"
 "http://www.w3.org/TR/2001/REC-SVG-20010904/DTD/svg10.dtd">
<svg version="1.0" xmlns="http://www.w3.org/2000/svg"
 width="409.000000pt" height="563.000000pt" viewBox="0 0 409.000000 563.000000"
 preserveAspectRatio="xMidYMid meet">
<metadata>
Created by potrace 1.15, written by Peter Selinger 2001-2017
</metadata>
<g transform="translate(0.000000,563.000000) scale(0.100000,-0.100000)"
fill="#3B7DD6" stroke="none">
<path d="M1805 5570 c-27 -5 -70 -12 -95 -16 -110 -15 -351 -111 -444 -177
-17 -12 -38 -26 -46 -32 -8 -5 -53 -48 -100 -95 -66 -66 -93 -102 -121 -160
-20 -41 -39 -87 -43 -101 -3 -15 -19 -41 -35 -58 -59 -63 -119 -197 -146 -327
-28 -134 -16 -454 21 -584 2 -9 -5 -19 -18 -25 -34 -15 -82 -85 -103 -151 -25
-76 -26 -241 -2 -333 49 -184 186 -333 321 -348 38 -5 44 -10 67 -51 41 -79
168 -253 245 -338 l74 -82 0 -183 0 -182 -38 -32 c-20 -18 -55 -57 -76 -87
l-40 -55 -150 -28 c-501 -93 -542 -103 -647 -155 -195 -99 -331 -275 -381
-495 -19 -85 -19 -1399 0 -1432 7 -12 29 -27 50 -33 26 -8 611 -10 1979 -8
l1941 3 26 24 26 24 0 688 c0 467 -4 705 -11 740 -29 136 -109 270 -221 374
-127 118 -241 165 -513 214 -93 17 -231 43 -305 57 l-135 26 -30 42 c-49 68
-94 113 -125 126 l-30 12 0 177 1 176 80 83 81 83 -7 -88 c-3 -48 -10 -121
-16 -161 -14 -115 -12 -148 14 -177 27 -32 83 -36 124 -10 43 28 143 134 204
216 324 436 437 944 328 1484 -41 202 -175 543 -268 681 -17 25 -31 49 -31 55
0 5 -3 9 -8 9 -4 0 -13 12 -19 28 -7 15 -23 38 -35 52 -13 14 -31 36 -39 50
-33 51 -152 178 -246 262 -165 148 -439 276 -668 313 -69 11 -338 14 -390 5z
m464 -226 c460 -125 796 -480 996 -1055 72 -209 100 -366 99 -574 -1 -263 -46
-454 -164 -685 -56 -109 -62 -120 -98 -172 -17 -26 -32 -49 -32 -53 0 -4 -7
-13 -15 -21 -13 -14 -15 -1 -15 113 0 217 -37 455 -100 645 -43 130 -147 336
-227 448 -76 106 -286 324 -378 391 -150 109 -227 157 -370 228 -182 90 -286
123 -328 104 -15 -7 -47 -46 -74 -89 -147 -233 -319 -403 -520 -515 -34 -18
-64 -31 -67 -28 -3 3 -13 61 -22 129 -34 259 7 468 117 597 30 35 52 74 67
120 109 338 665 543 1131 417z m-354 -927 c482 -247 804 -656 905 -1152 l22
-107 -48 -71 c-78 -114 -195 -242 -283 -310 -31 -23 -58 -44 -61 -47 -17 -17
-140 -77 -208 -102 -81 -29 -246 -36 -331 -14 -168 43 -315 135 -454 284 -83
90 -204 259 -262 367 -55 103 -55 103 -171 94 -55 -4 -104 48 -153 161 -32 77
-40 230 -14 279 15 29 27 37 72 48 163 41 363 164 521 323 102 102 228 257
252 312 l12 26 50 -20 c28 -11 96 -43 151 -71z m-137 -1967 c126 -42 250 -56
365 -40 107 14 216 49 302 96 34 19 65 34 68 34 4 0 7 -66 7 -147 l0 -148 -77
-237 c-42 -131 -79 -236 -81 -234 -2 3 -20 -1 -41 -9 -111 -39 -378 -45 -511
-10 l-66 16 -38 117 c-84 257 -94 289 -110 344 -9 31 -21 60 -26 63 -6 4 -10
60 -10 131 l0 125 65 -36 c36 -19 104 -49 153 -65z m-267 -610 c81 -259 126
-400 154 -485 12 -38 33 -101 44 -140 40 -126 142 -449 166 -520 13 -38 38
-117 55 -175 37 -122 59 -150 121 -150 72 0 83 15 140 193 28 89 60 189 71
222 11 33 37 115 59 182 21 68 57 178 78 246 22 67 57 178 79 247 140 439 195
606 199 613 6 9 29 -14 55 -55 18 -27 73 -52 141 -63 l37 -6 0 -154 0 -155
-27 -6 c-91 -22 -215 -120 -267 -209 -58 -100 -61 -123 -61 -475 l0 -325 25
-49 c35 -69 97 -120 170 -140 73 -21 112 -14 141 22 16 21 20 36 16 70 -6 54
-30 81 -81 89 -22 3 -50 17 -63 29 -23 23 -23 24 -23 311 0 281 1 289 24 338
27 59 63 97 126 133 39 23 56 27 125 27 63 0 89 -5 122 -23 60 -31 111 -78
136 -126 21 -39 22 -55 25 -334 4 -335 3 -337 -69 -348 -59 -10 -90 -40 -96
-95 -4 -38 -1 -50 20 -75 22 -26 31 -29 76 -27 109 5 206 76 242 178 17 49 19
85 19 332 0 304 -8 367 -56 470 -50 104 -174 203 -296 233 l-48 12 0 133 0
133 78 -15 c262 -48 319 -63 402 -104 160 -80 274 -227 300 -389 6 -39 10
-296 10 -642 l0 -578 -1825 0 -1826 0 3 623 3 622 24 60 c48 121 120 209 224
276 87 56 145 75 364 114 109 20 208 38 221 42 l22 5 0 -191 0 -191 -27 -6
c-16 -4 -54 -20 -86 -37 -154 -81 -243 -297 -194 -468 49 -166 230 -288 412
-277 138 9 248 85 312 216 37 73 38 80 38 182 0 98 -2 110 -32 170 -39 79
-101 140 -182 180 l-61 31 2 212 3 212 27 5 c32 6 79 46 104 90 l19 31 12 -28
c7 -15 40 -116 74 -223z m769 -342 c-19 -67 -126 -397 -189 -588 -21 -63 -41
-108 -44 -100 -3 8 -26 83 -52 165 -26 83 -77 245 -115 360 -37 116 -66 211
-65 213 1 1 33 -2 71 -8 115 -16 269 -9 406 19 4 0 -2 -27 -12 -61z m-1022
-165 c43 -23 97 -96 106 -147 10 -51 -10 -111 -50 -156 -121 -134 -314 -80
-355 100 -14 61 23 147 82 188 60 42 152 48 217 15z"/>
</g>
</svg>
