<svg width="64" height="64" xmlns="http://www.w3.org/2000/svg">

 <title/>
 <g>
  <title>background</title>
  <rect fill="none" id="canvas_background" height="402" width="582" y="-1" x="-1"/>
 </g>
 <g>
  <title stroke="#8c54ff">Layer 1</title>
  <rect stroke-width="2px" stroke-linejoin="round" stroke="#8c54ff" fill="none" id="svg_1" y="58" x="2" width="60" height="4" class="cls-1"/>
  <rect stroke-width="2px" stroke-linejoin="round" stroke="#8c54ff" fill="none" id="svg_2" y="54" x="4" width="56" height="4" class="cls-1"/>
  <line stroke-width="2px" stroke-linejoin="round" stroke="#8c54ff" fill="none" id="svg_3" y2="34" y1="54" x2="6" x1="6" class="cls-1"/>
  <line stroke-width="2px" stroke-linejoin="round" stroke="#8c54ff" fill="none" id="svg_4" y2="34" y1="54" x2="58" x1="58" class="cls-1"/>
  <line stroke-width="2px" stroke-linejoin="round" stroke="#8c54ff" fill="none" id="svg_5" y2="54" y1="34" x2="18" x1="18" class="cls-1"/>
  <line stroke-width="2px" stroke-linejoin="round" stroke="#8c54ff" fill="none" id="svg_6" y2="54" y1="34" x2="46" x1="46" class="cls-1"/>
  <polyline stroke-width="2px" stroke-linejoin="round" stroke="#8c54ff" fill="none" id="svg_7" points="24 54 24 38 40 38 40 54" class="cls-1"/>
  <line stroke-width="2px" stroke-linejoin="round" stroke="#8c54ff" fill="none" id="svg_8" y2="54" y1="38" x2="32" x1="32" class="cls-1"/>
  <rect stroke-width="2px" stroke-linejoin="round" stroke="#8c54ff" fill="none" id="svg_9" y="38" x="10" width="4" height="8" class="cls-1"/>
  <rect stroke-width="2px" stroke-linejoin="round" stroke="#8c54ff" fill="none" id="svg_10" y="38" x="50" width="4" height="8" class="cls-1"/>
  <line stroke-width="2px" stroke-linejoin="round" stroke="#8c54ff" fill="none" id="svg_11" y2="10" y1="30" x2="6" x1="6" class="cls-1"/>
  <line stroke-width="2px" stroke-linejoin="round" stroke="#8c54ff" fill="none" id="svg_12" y2="10" y1="30" x2="58" x1="58" class="cls-1"/>
  <rect stroke-width="2px" stroke-linejoin="round" stroke="#8c54ff" fill="none" id="svg_13" y="30" x="2" width="60" height="4" class="cls-1"/>
  <polyline stroke-width="2px" stroke-linejoin="round" stroke="#8c54ff" fill="none" id="svg_14" points="23 10 2 10 2 6 23 6" class="cls-1"/>
  <polyline stroke-width="2px" stroke-linejoin="round" stroke="#8c54ff" fill="none" id="svg_15" points="41 6 62 6 62 10 41 10" class="cls-1"/>
  <rect stroke-width="2px" stroke-linejoin="round" stroke="#8c54ff" fill="none" id="svg_16" y="2" x="23" width="18" height="12" class="cls-1"/>
  <line stroke-width="2px" stroke-linejoin="round" stroke="#8c54ff" fill="none" id="svg_17" y2="11" y1="5" x2="32" x1="32" class="cls-1"/>
  <line stroke-width="2px" stroke-linejoin="round" stroke="#8c54ff" fill="none" id="svg_18" y2="8" y1="8" x2="35" x1="29" class="cls-1"/>
  <rect stroke-width="2px" stroke-linejoin="round" stroke="#8c54ff" fill="none" id="svg_19" y="18" x="10" width="8" height="8" class="cls-1"/>
  <rect stroke-width="2px" stroke-linejoin="round" stroke="#8c54ff" fill="none" id="svg_20" y="18" x="22" width="8" height="8" class="cls-1"/>
  <rect stroke-width="2px" stroke-linejoin="round" stroke="#8c54ff" fill="none" id="svg_21" y="18" x="34" width="8" height="8" class="cls-1"/>
  <rect stroke-width="2px" stroke-linejoin="round" stroke="#8c54ff" fill="none" id="svg_22" y="18" x="46" width="8" height="8" class="cls-1"/>
 </g>
</svg>