<svg width="512" height="512" xmlns="http://www.w3.org/2000/svg">

 <g>
  <title>background</title>
  <rect fill="none" id="canvas_background" height="402" width="582" y="-1" x="-1"/>
 </g>
 <g>
  <title fill="#1bd861">Layer 1</title>
  <path fill="#1bd861" id="svg_4" d="m356.332,90.957l-200,0c-5.523,0 -10,-4.477 -10,-10l0,-60c0,-5.523 4.477,-10 10,-10l200,0c5.522,0 10,4.477 10,10l0,60c0,5.522 -4.478,10 -10,10zm-190,-20l180,0l0,-40l-180,0l0,40z"/>
  <path fill="#1bd861" id="svg_7" d="m186.095,362.603c-0.002,0 -0.002,0 -0.005,0c-28.479,-0.001 -57.79,-6.752 -89.606,-20.638c-2.717,-1.186 -4.768,-3.516 -5.599,-6.361c-0.832,-2.846 -0.357,-5.913 1.294,-8.375l60.667,-90.431c0.162,-0.241 0.334,-0.475 0.516,-0.701c14.812,-18.392 22.969,-41.525 22.969,-65.14l0,-90c0,-5.523 4.477,-10 10,-10l140,0c5.522,0 10,4.477 10,10l0,90c0,23.616 8.157,46.75 22.97,65.14c0.183,0.226 0.354,0.46 0.517,0.701l33.375,49.749c1.927,2.873 2.232,6.538 0.808,9.69s-4.378,5.344 -7.808,5.795c-32.478,4.275 -60.636,17.034 -87.866,29.373c-33.848,15.337 -68.851,31.198 -112.232,31.198zm-70.495,-34.385c24.948,9.667 48.108,14.384 70.491,14.385c39.064,0.001 70.598,-14.287 103.982,-29.415c24.265,-10.994 49.228,-22.307 77.911,-28.319l-24.536,-36.573c-17.489,-21.876 -27.115,-49.323 -27.115,-77.338l0,-80l-120,0l0,80c0,28.015 -9.625,55.461 -27.114,77.338l-53.619,79.922z"/>
  <path fill="#1bd861" id="svg_9" d="m434.998,500.956l-357.333,0c-9.092,0 -17.847,-1.945 -26.022,-5.781c-14.489,-6.796 -24.877,-19.688 -28.501,-35.368c-3.636,-15.736 0.013,-31.962 10.014,-44.597l59.024,-87.981c2.693,-4.016 7.873,-5.528 12.304,-3.594c29.243,12.763 55.934,18.968 81.593,18.968c0.005,0 0.008,0 0.013,0c39.057,-0.004 70.591,-14.29 103.977,-29.416c28.563,-12.94 58.098,-26.321 93.518,-30.982c3.762,-0.496 7.491,1.187 9.609,4.343l86.328,128.681c9.845,12.439 13.558,28.443 10.188,43.984c-3.336,15.385 -13.251,28.229 -27.201,35.241c-8.588,4.314 -17.844,6.502 -27.511,6.502zm-330.8,-155.744l-54.665,81.484c-0.162,0.241 -0.334,0.475 -0.516,0.701c-6.339,7.871 -8.668,18.043 -6.389,27.906c2.232,9.659 8.613,17.593 17.508,21.765c5.498,2.58 11.395,3.888 17.528,3.888l357.333,0c6.521,0 12.754,-1.472 18.529,-4.374c8.523,-4.283 14.587,-12.159 16.636,-21.608c2.116,-9.755 -0.255,-19.8 -6.504,-27.56c-0.183,-0.227 -0.354,-0.46 -0.517,-0.701l-83.036,-123.773c-29.936,4.974 -56.268,16.903 -81.786,28.465c-33.851,15.336 -68.854,31.194 -112.229,31.198c-0.003,0 -0.011,0 -0.014,0c-26.155,0 -53.011,-5.697 -81.878,-17.391z"/>
  <path fill="#1bd861" id="svg_10" d="m406.332,460.956c-16.542,0 -30,-13.458 -30,-30s13.458,-30 30,-30s30,13.458 30,30s-13.458,30 -30,30zm0,-40c-5.514,0 -10,4.486 -10,10s4.486,10 10,10s10,-4.486 10,-10s-4.486,-10 -10,-10z"/>
  <path fill="#1bd861" id="svg_11" d="m316.332,420.956c-16.542,0 -30,-13.458 -30,-30s13.458,-30 30,-30s30,13.458 30,30s-13.458,30 -30,30zm0,-40c-5.514,0 -10,4.486 -10,10s4.486,10 10,10s10,-4.486 10,-10s-4.486,-10 -10,-10z"/>
  <path fill="#1bd861" id="svg_12" d="m216.332,460.956c-16.542,0 -30,-13.458 -30,-30s13.458,-30 30,-30s30,13.458 30,30s-13.458,30 -30,30zm0,-40c-5.514,0 -10,4.486 -10,10s4.486,10 10,10s10,-4.486 10,-10s-4.486,-10 -10,-10z"/>
  <path fill="#1bd861" id="svg_13" d="m106.332,460.956c-16.542,0 -30,-13.458 -30,-30s13.458,-30 30,-30s30,13.458 30,30s-13.458,30 -30,30zm0,-40c-5.514,0 -10,4.486 -10,10s4.486,10 10,10s10,-4.486 10,-10s-4.486,-10 -10,-10z"/>
  <path fill="#1bd861" id="svg_14" d="m226.332,320.956c-16.542,0 -30,-13.458 -30,-30s13.458,-30 30,-30s30,13.458 30,30s-13.458,30 -30,30zm0,-40c-5.514,0 -10,4.486 -10,10s4.486,10 10,10s10,-4.486 10,-10s-4.486,-10 -10,-10z"/>
  <path fill="#1bd861" id="svg_15" d="m276.332,250.957c-16.542,0 -30,-13.458 -30,-30s13.458,-30 30,-30s30,13.458 30,30s-13.458,30 -30,30zm0,-40c-5.515,0 -10.001,4.486 -10.001,10s4.486,10 10.001,10c5.514,0 10,-4.486 10,-10s-4.486,-10 -10,-10z"/>
  <path fill="#1bd861" id="svg_16" d="m236.318,170.957c-16.204,0 -29.367,-12.69 -29.966,-28.89c-0.296,-8.008 2.543,-15.652 7.996,-21.524s12.866,-9.27 20.874,-9.566c16.696,-0.612 30.476,12.296 31.089,28.869c0.297,8.008 -2.543,15.652 -7.995,21.524c-5.453,5.872 -12.866,9.27 -20.874,9.566c-0.376,0.014 -0.751,0.021 -1.124,0.021zm0.027,-40.001c-0.127,0 -0.255,0.002 -0.383,0.007c-2.669,0.099 -5.14,1.231 -6.958,3.188c-1.818,1.958 -2.764,4.505 -2.666,7.175c0.205,5.528 4.821,9.831 10.363,9.623c2.669,-0.099 5.14,-1.231 6.958,-3.188c1.818,-1.958 2.764,-4.505 2.666,-7.175c-0.2,-5.4 -4.584,-9.63 -9.98,-9.63z"/>
  <g id="Layer_1"/>
 </g>
</svg>